<svg width="760" height="220" viewBox="0 0 760 220" fill="none" xmlns="http://www.w3.org/2000/svg" role="img" aria-labelledby="title desc">
  <title id="title">shadox logo</title>
  <desc id="desc">A dark technical logo for shadox, an agent runtime control plane.</desc>
  <defs>
    <linearGradient id="markGradient" x1="34" y1="23" x2="190" y2="197" gradientUnits="userSpaceOnUse">
      <stop stop-color="#4DD7A8"/>
      <stop offset="0.52" stop-color="#5BA8FF"/>
      <stop offset="1" stop-color="#B08CFF"/>
    </linearGradient>
    <linearGradient id="textGradient" x1="220" y1="65" x2="704" y2="161" gradientUnits="userSpaceOnUse">
      <stop stop-color="#F8FAFC"/>
      <stop offset="1" stop-color="#B9C7D9"/>
    </linearGradient>
    <filter id="softShadow" x="-10%" y="-20%" width="120%" height="140%" color-interpolation-filters="sRGB">
      <feDropShadow dx="0" dy="14" stdDeviation="16" flood-color="#04111F" flood-opacity="0.38"/>
    </filter>
  </defs>
  <rect width="760" height="220" rx="34" fill="#08111F"/>
  <path d="M0 120C86 80 134 155 223 119C316 82 349 43 468 73C572 99 626 80 760 24V220H0V120Z" fill="#0E1C2F"/>
  <path d="M0 180C100 123 168 171 260 144C359 115 401 145 493 168C585 191 659 159 760 119V220H0V180Z" fill="#101827"/>
  <g filter="url(#softShadow)">
    <path d="M113.204 24.54L189.353 68.511V156.45L113.204 200.419L37.055 156.45V68.511L113.204 24.54Z" fill="#0B1728" stroke="url(#markGradient)" stroke-width="5"/>
    <path d="M113.204 56.868L160.815 84.355V139.327L113.204 166.812L65.593 139.327V84.355L113.204 56.868Z" fill="#10233A" stroke="#243A56" stroke-width="3"/>
    <path d="M82 115.5H145.5" stroke="#4DD7A8" stroke-width="8" stroke-linecap="round"/>
    <path d="M113.5 84V148" stroke="#5BA8FF" stroke-width="8" stroke-linecap="round"/>
    <circle cx="82" cy="115.5" r="9" fill="#4DD7A8"/>
    <circle cx="145.5" cy="115.5" r="9" fill="#B08CFF"/>
    <circle cx="113.5" cy="84" r="9" fill="#5BA8FF"/>
    <circle cx="113.5" cy="148" r="9" fill="#F8FAFC"/>
  </g>
  <text x="226" y="113" fill="url(#textGradient)" font-family="Inter, ui-sans-serif, system-ui, -apple-system, BlinkMacSystemFont, 'Segoe UI', sans-serif" font-size="68" font-weight="760" letter-spacing="0">shadox</text>
  <text x="231" y="151" fill="#8EA3B7" font-family="Inter, ui-sans-serif, system-ui, -apple-system, BlinkMacSystemFont, 'Segoe UI', sans-serif" font-size="19" font-weight="520" letter-spacing="0">observable, reversible command execution for agents</text>
</svg>
